
<svg xmlns="http://www.w3.org/2000/svg" width="128" height="128"><path fill="#224071" d="M103.798 101.225 85.884 89.587V69.32l17.914-11.638v43.543z"/><rect x="24.196" y="57.84" width="61.688" height="43.227" rx="3.268" ry="3.268" fill="#455e9f"/><circle cx="63.997" cy="57.282" r="8.182" fill="#ffd92d"/><g fill="#001c5b"><path d="M103.8 84a1.749 1.749 0 0 0-1.75 1.75v1a1.75 1.75 0 0 0 3.5 0v-1A1.749 1.749 0 0 0 103.8 84z"/><path d="M104.636 56.144a1.749 1.749 0 0 0-1.788.071L87.637 66.1v-4.992a5.024 5.024 0 0 0-5.018-5.018h-4.9a1.75 1.75 0 1 0 0 3.5h4.9a1.52 1.52 0 0 1 1.518 1.518V97.8a1.52 1.52 0 0 1-1.518 1.518H27.467a1.52 1.52 0 0 1-1.518-1.518V61.108a1.52 1.52 0 0 1 1.518-1.518H33.5a1.75 1.75 0 0 0 0-3.5h-6.033a5.024 5.024 0 0 0-5.018 5.018V97.8a5.024 5.024 0 0 0 5.018 5.018h55.152a5.024 5.024 0 0 0 5.018-5.018v-4.989l15.211 9.881a1.749 1.749 0 0 0 2.7-1.467v-8.392a1.75 1.75 0 0 0-3.5 0V98l-14.411-9.362V70.269l14.414-9.363v18.548a1.75 1.75 0 0 0 3.5 0V57.682a1.752 1.752 0 0 0-.915-1.538z"/><path d="M39.625 59.59h1.125a1.75 1.75 0 0 0 0-3.5h-1.125a1.75 1.75 0 0 0 0 3.5zM56.978 50.258a9.865 9.865 0 0 0-2.825 5.832h-7.778a1.75 1.75 0 0 0 0 3.5h7.979a9.922 9.922 0 1 0 2.624-9.332zm11.571 2.475A6.433 6.433 0 1 1 64 50.849a6.389 6.389 0 0 1 4.549 1.884zM78.96 44.8a1.749 1.749 0 0 0 0-2.475 21.157 21.157 0 0 0-29.92 0 1.75 1.75 0 1 0 2.475 2.475 17.658 17.658 0 0 1 24.97 0 1.751 1.751 0 0 0 2.475 0zM76.935 31.591a28.794 28.794 0 0 1 7.4 5.356 1.75 1.75 0 1 0 2.475-2.475 32.286 32.286 0 0 0-8.3-6.006 1.75 1.75 0 1 0-1.576 3.125zM42.429 37.46a1.742 1.742 0 0 0 1.237-.512 28.814 28.814 0 0 1 28.048-7.378 1.75 1.75 0 1 0 .935-3.372 32.31 32.31 0 0 0-31.458 8.275 1.75 1.75 0 0 0 1.238 2.987z"/></g></svg>